<svg xmlns="http://www.w3.org/2000/svg" xmlns:xlink="http://www.w3.org/1999/xlink" width="1920" zoomAndPan="magnify" viewBox="0 0 1440 809.999993" height="1080" preserveAspectRatio="xMidYMid meet" version="1.0"><defs><linearGradient x1="0" gradientTransform="matrix(0.75, 0, 0, 0.75, 0.00000622222, 0.00002)" y1="540" x2="1919.99992" gradientUnits="userSpaceOnUse" y2="540" id="f307e891ba"><stop stop-opacity="1" stop-color="rgb(10.198975%, 9.799194%, 11.369324%)" offset="0"/><stop stop-opacity="1" stop-color="rgb(10.31189%, 9.991455%, 11.531067%)" offset="0.015625"/><stop stop-opacity="1" stop-color="rgb(10.539246%, 10.377502%, 11.856079%)" offset="0.03125"/><stop stop-opacity="1" stop-color="rgb(10.765076%, 10.76355%, 12.181091%)" offset="0.046875"/><stop stop-opacity="1" stop-color="rgb(10.992432%, 11.149597%, 12.506104%)" offset="0.0625"/><stop stop-opacity="1" stop-color="rgb(11.219788%, 11.535645%, 12.831116%)" offset="0.078125"/><stop stop-opacity="1" stop-color="rgb(11.445618%, 11.921692%, 13.154602%)" offset="0.09375"/><stop stop-opacity="1" stop-color="rgb(11.672974%, 12.307739%, 13.479614%)" offset="0.109375"/><stop stop-opacity="1" stop-color="rgb(11.898804%, 12.693787%, 13.804626%)" offset="0.125"/><stop stop-opacity="1" stop-color="rgb(12.12616%, 13.079834%, 14.129639%)" offset="0.140625"/><stop stop-opacity="1" stop-color="rgb(12.35199%, 13.465881%, 14.454651%)" offset="0.15625"/><stop stop-opacity="1" stop-color="rgb(12.579346%, 13.851929%, 14.779663%)" offset="0.171875"/><stop stop-opacity="1" stop-color="rgb(12.806702%, 14.237976%, 15.104675%)" offset="0.1875"/><stop stop-opacity="1" stop-color="rgb(13.032532%, 14.624023%, 15.429688%)" offset="0.203125"/><stop stop-opacity="1" stop-color="rgb(13.259888%, 15.010071%, 15.7547%)" offset="0.21875"/><stop stop-opacity="1" stop-color="rgb(13.485718%, 15.396118%, 16.078186%)" offset="0.234375"/><stop stop-opacity="1" stop-color="rgb(13.713074%, 15.783691%, 16.403198%)" offset="0.25"/><stop stop-opacity="1" stop-color="rgb(13.938904%, 16.169739%, 16.72821%)" offset="0.265625"/><stop stop-opacity="1" stop-color="rgb(14.16626%, 16.555786%, 17.053223%)" offset="0.28125"/><stop stop-opacity="1" stop-color="rgb(14.393616%, 16.941833%, 17.378235%)" offset="0.296875"/><stop stop-opacity="1" stop-color="rgb(14.619446%, 17.327881%, 17.703247%)" offset="0.3125"/><stop stop-opacity="1" stop-color="rgb(14.846802%, 17.713928%, 18.028259%)" offset="0.328125"/><stop stop-opacity="1" stop-color="rgb(15.072632%, 18.099976%, 18.353271%)" offset="0.34375"/><stop stop-opacity="1" stop-color="rgb(15.299988%, 18.486023%, 18.678284%)" offset="0.359375"/><stop stop-opacity="1" stop-color="rgb(15.527344%, 18.87207%, 19.00177%)" offset="0.375"/><stop stop-opacity="1" stop-color="rgb(15.753174%, 19.258118%, 19.326782%)" offset="0.390625"/><stop stop-opacity="1" stop-color="rgb(15.98053%, 19.644165%, 19.651794%)" offset="0.40625"/><stop stop-opacity="1" stop-color="rgb(16.20636%, 20.030212%, 19.976807%)" offset="0.421875"/><stop stop-opacity="1" stop-color="rgb(16.433716%, 20.41626%, 20.301819%)" offset="0.4375"/><stop stop-opacity="1" stop-color="rgb(16.659546%, 20.802307%, 20.626831%)" offset="0.453125"/><stop stop-opacity="1" stop-color="rgb(16.886902%, 21.188354%, 20.951843%)" offset="0.46875"/><stop stop-opacity="1" stop-color="rgb(17.114258%, 21.574402%, 21.276855%)" offset="0.484375"/><stop stop-opacity="1" stop-color="rgb(17.340088%, 21.960449%, 21.601868%)" offset="0.5"/><stop stop-opacity="1" stop-color="rgb(17.567444%, 22.346497%, 21.925354%)" offset="0.515625"/><stop stop-opacity="1" stop-color="rgb(17.793274%, 22.732544%, 22.250366%)" offset="0.53125"/><stop stop-opacity="1" stop-color="rgb(18.02063%, 23.118591%, 22.575378%)" offset="0.546875"/><stop stop-opacity="1" stop-color="rgb(18.247986%, 23.504639%, 22.900391%)" offset="0.5625"/><stop stop-opacity="1" stop-color="rgb(18.473816%, 23.890686%, 23.225403%)" offset="0.578125"/><stop stop-opacity="1" stop-color="rgb(18.701172%, 24.276733%, 23.550415%)" offset="0.59375"/><stop stop-opacity="1" stop-color="rgb(18.927002%, 24.662781%, 23.875427%)" offset="0.609375"/><stop stop-opacity="1" stop-color="rgb(19.154358%, 25.048828%, 24.200439%)" offset="0.625"/><stop stop-opacity="1" stop-color="rgb(19.380188%, 25.434875%, 24.525452%)" offset="0.640625"/><stop stop-opacity="1" stop-color="rgb(19.607544%, 25.820923%, 24.848938%)" offset="0.65625"/><stop stop-opacity="1" stop-color="rgb(19.8349%, 26.20697%, 25.17395%)" offset="0.671875"/><stop stop-opacity="1" stop-color="rgb(20.06073%, 26.593018%, 25.498962%)" offset="0.6875"/><stop stop-opacity="1" stop-color="rgb(20.288086%, 26.979065%, 25.823975%)" offset="0.703125"/><stop stop-opacity="1" stop-color="rgb(20.513916%, 27.365112%, 26.148987%)" offset="0.71875"/><stop stop-opacity="1" stop-color="rgb(20.741272%, 27.75116%, 26.473999%)" offset="0.734375"/><stop stop-opacity="1" stop-color="rgb(20.968628%, 28.137207%, 26.799011%)" offset="0.75"/><stop stop-opacity="1" stop-color="rgb(21.194458%, 28.52478%, 27.124023%)" offset="0.765625"/><stop stop-opacity="1" stop-color="rgb(21.421814%, 28.910828%, 27.449036%)" offset="0.78125"/><stop stop-opacity="1" stop-color="rgb(21.647644%, 29.296875%, 27.772522%)" offset="0.796875"/><stop stop-opacity="1" stop-color="rgb(21.875%, 29.682922%, 28.097534%)" offset="0.8125"/><stop stop-opacity="1" stop-color="rgb(22.10083%, 30.06897%, 28.422546%)" offset="0.828125"/><stop stop-opacity="1" stop-color="rgb(22.328186%, 30.455017%, 28.747559%)" offset="0.84375"/><stop stop-opacity="1" stop-color="rgb(22.555542%, 30.841064%, 29.072571%)" offset="0.859375"/><stop stop-opacity="1" stop-color="rgb(22.781372%, 31.227112%, 29.397583%)" offset="0.875"/><stop stop-opacity="1" stop-color="rgb(23.008728%, 31.613159%, 29.722595%)" offset="0.890625"/><stop stop-opacity="1" stop-color="rgb(23.234558%, 31.999207%, 30.047607%)" offset="0.90625"/><stop stop-opacity="1" stop-color="rgb(23.461914%, 32.385254%, 30.37262%)" offset="0.921875"/><stop stop-opacity="1" stop-color="rgb(23.68927%, 32.771301%, 30.696106%)" offset="0.9375"/><stop stop-opacity="1" stop-color="rgb(23.9151%, 33.157349%, 31.021118%)" offset="0.953125"/><stop stop-opacity="1" stop-color="rgb(24.142456%, 33.543396%, 31.34613%)" offset="0.96875"/><stop stop-opacity="1" stop-color="rgb(24.368286%, 33.929443%, 31.671143%)" offset="0.984375"/><stop stop-opacity="1" stop-color="rgb(24.595642%, 34.315491%, 31.996155%)" offset="1"/></linearGradient><clipPath id="ab95ece8fd"><path d="M 1310 554 L 1440 554 L 1440 810 L 1310 810 Z M 1310 554 " clip-rule="nonzero"/></clipPath><clipPath id="7494d90840"><path d="M 1226.59375 706.085938 L 1422.816406 509.863281 L 1614.265625 701.3125 L 1418.042969 897.535156 Z M 1226.59375 706.085938 " clip-rule="nonzero"/></clipPath><clipPath id="6e00520fdd"><path d="M 1226.59375 706.085938 L 1422.816406 509.863281 L 1614.265625 701.3125 L 1418.042969 897.535156 Z M 1226.59375 706.085938 " clip-rule="nonzero"/></clipPath><clipPath id="21edc13277"><path d="M 0 0 L 111 0 L 111 231 L 0 231 Z M 0 0 " clip-rule="nonzero"/></clipPath><clipPath id="c7c1414c5b"><path d="M -193.851562 84.167969 L 2.371094 -112.054688 L 193.820312 79.394531 L -2.402344 275.617188 Z M -193.851562 84.167969 " clip-rule="nonzero"/></clipPath><clipPath id="229fd792c7"><path d="M -193.851562 84.167969 L 2.371094 -112.054688 L 193.820312 79.394531 L -2.402344 275.617188 Z M -193.851562 84.167969 " clip-rule="nonzero"/></clipPath></defs><rect x="-144" width="1728" fill="#ffffff" y="-80.999999" height="971.999992" fill-opacity="1"/><rect x="-144" fill="url(#f307e891ba)" width="1728" y="-80.999999" height="971.999992"/><g clip-path="url(#ab95ece8fd)"><g clip-path="url(#7494d90840)"><g clip-path="url(#6e00520fdd)"><path fill="#538573" d="M 1499.203125 586.195312 C 1457.097656 544.09375 1388.589844 544.09375 1346.484375 586.195312 C 1343.5625 589.121094 1340.8125 592.203125 1338.246094 595.441406 C 1335.675781 598.683594 1333.300781 602.058594 1331.121094 605.570312 C 1328.9375 609.085938 1326.964844 612.710938 1325.203125 616.453125 C 1323.4375 620.191406 1321.894531 624.019531 1320.570312 627.9375 C 1319.246094 631.855469 1318.152344 635.835938 1317.285156 639.878906 C 1316.421875 643.921875 1315.789062 648 1315.394531 652.117188 C 1314.996094 656.234375 1314.835938 660.359375 1314.914062 664.492188 C 1314.992188 668.628906 1315.308594 672.742188 1315.859375 676.839844 C 1314.160156 683.539062 1313.105469 690.339844 1312.703125 697.238281 C 1312.300781 704.136719 1312.554688 711.011719 1313.460938 717.859375 C 1312.886719 720.117188 1312.382812 722.390625 1311.953125 724.683594 C 1311.523438 726.972656 1311.167969 729.273438 1310.886719 731.589844 C 1310.605469 733.902344 1310.398438 736.222656 1310.269531 738.546875 C 1310.136719 740.875 1310.082031 743.203125 1310.101562 745.535156 C 1310.121094 747.863281 1310.21875 750.191406 1310.386719 752.515625 C 1310.558594 754.839844 1310.804688 757.15625 1311.125 759.464844 C 1311.445312 761.773438 1311.839844 764.066406 1312.308594 766.351562 C 1312.777344 768.632812 1313.320312 770.898438 1313.933594 773.144531 C 1314.550781 775.394531 1315.238281 777.617188 1315.996094 779.820312 C 1316.757812 782.023438 1317.585938 784.199219 1318.488281 786.351562 C 1319.386719 788.5 1320.355469 790.617188 1321.394531 792.703125 C 1322.429688 794.789062 1323.535156 796.839844 1324.707031 798.855469 C 1325.875 800.871094 1327.109375 802.847656 1328.40625 804.78125 C 1329.707031 806.71875 1331.066406 808.609375 1332.484375 810.457031 C 1333.90625 812.304688 1335.382812 814.105469 1336.921875 815.855469 C 1338.457031 817.609375 1340.050781 819.308594 1341.695312 820.957031 C 1383.800781 863.058594 1452.3125 863.058594 1494.414062 820.957031 C 1497.339844 818.03125 1500.085938 814.949219 1502.652344 811.710938 C 1505.222656 808.46875 1507.597656 805.09375 1509.78125 801.582031 C 1511.960938 798.066406 1513.933594 794.441406 1515.695312 790.703125 C 1517.460938 786.960938 1519.003906 783.132812 1520.328125 779.214844 C 1521.652344 775.296875 1522.746094 771.316406 1523.613281 767.273438 C 1524.476562 763.230469 1525.109375 759.152344 1525.503906 755.035156 C 1525.902344 750.917969 1526.0625 746.792969 1525.984375 742.660156 C 1525.90625 738.527344 1525.589844 734.410156 1525.039062 730.3125 C 1526.738281 723.613281 1527.789062 716.8125 1528.191406 709.914062 C 1528.59375 703.015625 1528.34375 696.144531 1527.4375 689.292969 C 1528.015625 687.035156 1528.515625 684.761719 1528.945312 682.46875 C 1529.378906 680.179688 1529.730469 677.878906 1530.011719 675.566406 C 1530.292969 673.25 1530.5 670.929688 1530.628906 668.605469 C 1530.761719 666.277344 1530.816406 663.949219 1530.796875 661.621094 C 1530.777344 659.289062 1530.683594 656.960938 1530.511719 654.636719 C 1530.339844 652.3125 1530.09375 649.996094 1529.773438 647.6875 C 1529.453125 645.382812 1529.058594 643.085938 1528.589844 640.804688 C 1528.121094 638.519531 1527.578125 636.253906 1526.964844 634.007812 C 1526.347656 631.761719 1525.660156 629.535156 1524.902344 627.332031 C 1524.140625 625.128906 1523.3125 622.953125 1522.410156 620.804688 C 1521.511719 618.652344 1520.542969 616.535156 1519.503906 614.449219 C 1518.46875 612.363281 1517.363281 610.3125 1516.195312 608.296875 C 1515.023438 606.28125 1513.789062 604.304688 1512.492188 602.371094 C 1511.195312 600.433594 1509.835938 598.542969 1508.414062 596.695312 C 1506.992188 594.847656 1505.515625 593.046875 1503.976562 591.296875 C 1502.441406 589.546875 1500.847656 587.84375 1499.203125 586.195312 Z M 1317 683.765625 C 1317.941406 688.507812 1319.199219 693.160156 1320.765625 697.734375 C 1318.683594 702.074219 1316.894531 706.535156 1315.402344 711.117188 C 1314.75 701.929688 1315.28125 692.8125 1317 683.765625 Z M 1497.316406 737.074219 C 1456.238281 778.152344 1389.386719 778.152344 1348.304688 737.074219 C 1342.777344 731.550781 1337.929688 725.480469 1333.757812 718.871094 C 1329.589844 712.257812 1326.199219 705.269531 1323.59375 697.898438 C 1328.714844 687.53125 1335.367188 678.261719 1343.550781 670.09375 C 1384.628906 629.011719 1451.476562 629.007812 1492.558594 670.09375 C 1498.09375 675.613281 1502.949219 681.679688 1507.125 688.289062 C 1511.300781 694.902344 1514.695312 701.890625 1517.304688 709.261719 C 1512.183594 719.628906 1505.53125 728.894531 1497.347656 737.058594 Z M 1518.429688 712.761719 C 1520.226562 718.453125 1521.53125 724.257812 1522.34375 730.171875 C 1521.175781 734.6875 1519.714844 739.105469 1517.957031 743.425781 C 1516.199219 747.746094 1514.164062 751.929688 1511.847656 755.976562 C 1509.53125 760.027344 1506.957031 763.902344 1504.121094 767.605469 C 1501.289062 771.308594 1498.222656 774.808594 1494.917969 778.101562 C 1453.835938 819.1875 1386.992188 819.1875 1345.910156 778.101562 C 1341.875 774.074219 1338.195312 769.75 1334.863281 765.121094 C 1331.535156 760.496094 1328.605469 755.628906 1326.070312 750.523438 C 1323.535156 745.417969 1321.429688 740.140625 1319.757812 734.691406 C 1318.085938 729.242188 1316.863281 723.695312 1316.09375 718.046875 C 1317.585938 712.28125 1319.554688 706.683594 1322 701.257812 C 1324.699219 708.328125 1328.109375 715.035156 1332.230469 721.382812 C 1336.347656 727.734375 1341.085938 733.582031 1346.441406 738.929688 C 1388.546875 781.03125 1457.058594 781.03125 1499.160156 738.929688 C 1506.929688 731.183594 1513.363281 722.453125 1518.460938 712.738281 Z M 1494.378906 668.257812 C 1452.273438 626.152344 1383.761719 626.152344 1341.660156 668.257812 C 1333.90625 676 1327.484375 684.71875 1322.394531 694.417969 C 1320.601562 688.726562 1319.296875 682.921875 1318.480469 677.007812 C 1319.648438 672.492188 1321.113281 668.078125 1322.871094 663.757812 C 1324.628906 659.4375 1326.664062 655.253906 1328.980469 651.207031 C 1331.296875 647.160156 1333.871094 643.28125 1336.707031 639.578125 C 1339.539062 635.875 1342.609375 632.375 1345.910156 629.082031 C 1386.988281 588.003906 1453.835938 588 1494.914062 629.078125 C 1498.949219 633.105469 1502.632812 637.433594 1505.960938 642.058594 C 1509.289062 646.6875 1512.222656 651.554688 1514.757812 656.660156 C 1517.292969 661.765625 1519.398438 667.042969 1521.070312 672.492188 C 1522.746094 677.941406 1523.964844 683.492188 1524.734375 689.140625 C 1523.242188 694.902344 1521.273438 700.5 1518.828125 705.929688 C 1516.132812 698.855469 1512.726562 692.144531 1508.613281 685.792969 C 1504.5 679.441406 1499.765625 673.589844 1494.414062 668.238281 Z M 1492.558594 819.101562 C 1451.476562 860.1875 1384.628906 860.179688 1343.550781 819.101562 C 1340.523438 816.074219 1337.691406 812.871094 1335.050781 809.496094 C 1332.414062 806.121094 1329.992188 802.597656 1327.785156 798.925781 C 1325.578125 795.257812 1323.601562 791.464844 1321.855469 787.554688 C 1320.109375 783.640625 1318.609375 779.640625 1317.355469 775.542969 C 1316.097656 771.449219 1315.09375 767.292969 1314.34375 763.078125 C 1313.59375 758.859375 1313.105469 754.613281 1312.871094 750.335938 C 1312.640625 746.058594 1312.671875 741.785156 1312.960938 737.511719 C 1313.25 733.238281 1313.800781 728.996094 1314.605469 724.789062 C 1315.636719 729.988281 1317.039062 735.078125 1318.824219 740.066406 C 1320.605469 745.054688 1322.746094 749.886719 1325.242188 754.554688 C 1327.738281 759.226562 1330.566406 763.691406 1333.726562 767.941406 C 1336.882812 772.195312 1340.339844 776.191406 1344.089844 779.933594 C 1386.191406 822.035156 1454.703125 822.035156 1496.804688 779.933594 C 1502.824219 773.925781 1508.054688 767.300781 1512.5 760.054688 C 1516.945312 752.804688 1520.480469 745.136719 1523.101562 737.050781 C 1523.378906 740.808594 1523.449219 744.566406 1523.320312 748.332031 C 1523.191406 752.09375 1522.859375 755.839844 1522.328125 759.570312 C 1521.796875 763.296875 1521.066406 766.988281 1520.136719 770.636719 C 1519.210938 774.285156 1518.089844 777.875 1516.773438 781.40625 C 1515.460938 784.933594 1513.960938 788.382812 1512.277344 791.753906 C 1510.59375 795.121094 1508.734375 798.390625 1506.699219 801.558594 C 1504.664062 804.726562 1502.464844 807.777344 1500.101562 810.710938 C 1497.738281 813.640625 1495.222656 816.441406 1492.558594 819.101562 Z M 1523.871094 723.40625 C 1522.929688 718.664062 1521.671875 714.007812 1520.105469 709.4375 C 1522.199219 705.089844 1523.996094 700.621094 1525.488281 696.03125 C 1526.144531 705.21875 1525.613281 714.335938 1523.894531 723.382812 Z M 1526.269531 682.386719 C 1525.238281 677.1875 1523.832031 672.097656 1522.050781 667.109375 C 1520.265625 662.121094 1518.125 657.289062 1515.628906 652.617188 C 1513.132812 647.945312 1510.304688 643.484375 1507.144531 639.230469 C 1503.988281 634.976562 1500.53125 630.980469 1496.78125 627.238281 C 1454.679688 585.132812 1386.171875 585.140625 1344.070312 627.242188 C 1338.050781 633.246094 1332.816406 639.875 1328.375 647.121094 C 1323.929688 654.371094 1320.394531 662.039062 1317.773438 670.125 C 1317.5 666.367188 1317.425781 662.605469 1317.554688 658.839844 C 1317.683594 655.074219 1318.015625 651.328125 1318.546875 647.597656 C 1319.082031 643.867188 1319.8125 640.179688 1320.738281 636.527344 C 1321.667969 632.875 1322.789062 629.285156 1324.105469 625.753906 C 1325.421875 622.222656 1326.921875 618.773438 1328.605469 615.40625 C 1330.292969 612.035156 1332.152344 608.765625 1334.191406 605.597656 C 1336.226562 602.425781 1338.429688 599.375 1340.792969 596.441406 C 1343.15625 593.511719 1345.671875 590.714844 1348.339844 588.050781 C 1389.414062 546.976562 1456.265625 546.964844 1497.347656 588.050781 C 1500.375 591.078125 1503.210938 594.28125 1505.847656 597.65625 C 1508.484375 601.03125 1510.90625 604.554688 1513.113281 608.226562 C 1515.320312 611.894531 1517.296875 615.6875 1519.042969 619.597656 C 1520.789062 623.511719 1522.289062 627.511719 1523.546875 631.609375 C 1524.800781 635.703125 1525.804688 639.859375 1526.554688 644.074219 C 1527.304688 648.292969 1527.792969 652.539062 1528.027344 656.816406 C 1528.257812 661.09375 1528.226562 665.371094 1527.9375 669.644531 C 1527.648438 673.917969 1527.097656 678.15625 1526.292969 682.363281 Z M 1526.269531 682.386719 " fill-opacity="1" fill-rule="nonzero"/></g></g></g><g clip-path="url(#21edc13277)"><g clip-path="url(#c7c1414c5b)"><g clip-path="url(#229fd792c7)"><path fill="#538573" d="M 78.753906 -35.722656 C 36.652344 -77.828125 -31.859375 -77.828125 -73.964844 -35.722656 C -76.886719 -32.800781 -79.632812 -29.71875 -82.203125 -26.476562 C -84.773438 -23.238281 -87.148438 -19.859375 -89.328125 -16.347656 C -91.507812 -12.835938 -93.480469 -9.207031 -95.246094 -5.46875 C -97.007812 -1.726562 -98.554688 2.101562 -99.875 6.019531 C -101.199219 9.933594 -102.296875 13.914062 -103.160156 17.957031 C -104.027344 22.003906 -104.65625 26.082031 -105.054688 30.199219 C -105.449219 34.3125 -105.609375 38.4375 -105.53125 42.574219 C -105.453125 46.707031 -105.140625 50.824219 -104.589844 54.921875 C -106.289062 61.621094 -107.339844 68.417969 -107.742188 75.316406 C -108.148438 82.214844 -107.894531 89.089844 -106.984375 95.941406 C -107.5625 98.199219 -108.066406 100.472656 -108.496094 102.761719 C -108.925781 105.054688 -109.28125 107.355469 -109.5625 109.667969 C -109.84375 111.980469 -110.046875 114.300781 -110.179688 116.628906 C -110.308594 118.957031 -110.367188 121.285156 -110.34375 123.613281 C -110.324219 125.945312 -110.230469 128.269531 -110.058594 130.59375 C -109.890625 132.917969 -109.644531 135.234375 -109.324219 137.542969 C -109.003906 139.851562 -108.609375 142.148438 -108.140625 144.429688 C -107.671875 146.710938 -107.128906 148.976562 -106.511719 151.226562 C -105.898438 153.472656 -105.210938 155.699219 -104.449219 157.902344 C -103.691406 160.105469 -102.859375 162.28125 -101.960938 164.429688 C -101.058594 166.578125 -100.089844 168.699219 -99.054688 170.785156 C -98.015625 172.871094 -96.914062 174.921875 -95.742188 176.9375 C -94.570312 178.953125 -93.339844 180.925781 -92.039062 182.863281 C -90.742188 184.796875 -89.382812 186.691406 -87.960938 188.539062 C -86.542969 190.382812 -85.0625 192.183594 -83.527344 193.9375 C -81.988281 195.6875 -80.398438 197.386719 -78.75 199.035156 C -36.648438 241.140625 31.863281 241.140625 73.964844 199.035156 C 76.890625 196.113281 79.636719 193.03125 82.207031 189.789062 C 84.777344 186.550781 87.152344 183.175781 89.332031 179.660156 C 91.511719 176.148438 93.484375 172.523438 95.25 168.78125 C 97.011719 165.042969 98.558594 161.214844 99.878906 157.296875 C 101.203125 153.378906 102.296875 149.398438 103.164062 145.355469 C 104.03125 141.3125 104.660156 137.230469 105.058594 133.117188 C 105.453125 129 105.613281 124.875 105.535156 120.738281 C 105.457031 116.605469 105.144531 112.488281 104.59375 108.390625 C 106.289062 101.691406 107.339844 94.894531 107.742188 87.996094 C 108.148438 81.097656 107.894531 74.222656 106.988281 67.371094 C 107.566406 65.113281 108.070312 62.839844 108.5 60.550781 C 108.929688 58.261719 109.285156 55.957031 109.566406 53.644531 C 109.847656 51.332031 110.050781 49.011719 110.183594 46.683594 C 110.3125 44.359375 110.371094 42.03125 110.347656 39.699219 C 110.328125 37.371094 110.234375 35.042969 110.0625 32.71875 C 109.894531 30.394531 109.648438 28.078125 109.328125 25.769531 C 109.007812 23.460938 108.613281 21.164062 108.144531 18.882812 C 107.675781 16.601562 107.132812 14.335938 106.515625 12.089844 C 105.902344 9.839844 105.214844 7.613281 104.453125 5.410156 C 103.695312 3.207031 102.863281 1.03125 101.964844 -1.117188 C 101.0625 -3.265625 100.09375 -5.382812 99.058594 -7.472656 C 98.019531 -9.558594 96.917969 -11.609375 95.746094 -13.625 C 94.574219 -15.640625 93.34375 -17.613281 92.042969 -19.550781 C 90.746094 -21.484375 89.386719 -23.375 87.964844 -25.222656 C 86.546875 -27.070312 85.066406 -28.871094 83.53125 -30.621094 C 81.992188 -32.375 80.402344 -34.074219 78.753906 -35.722656 Z M -103.449219 61.847656 C -102.503906 66.585938 -101.246094 71.242188 -99.679688 75.8125 C -101.765625 80.15625 -103.550781 84.617188 -105.042969 89.195312 C -105.699219 80.011719 -105.167969 70.894531 -103.449219 61.847656 Z M 76.867188 115.15625 C 35.789062 156.234375 -31.0625 156.234375 -72.140625 115.15625 C -77.667969 109.628906 -82.519531 103.5625 -86.6875 96.949219 C -90.859375 90.339844 -94.246094 83.351562 -96.851562 75.980469 C -91.734375 65.613281 -85.082031 56.34375 -76.898438 48.171875 C -35.816406 7.09375 31.027344 7.089844 72.113281 48.171875 C 77.648438 53.695312 82.503906 59.761719 86.679688 66.371094 C 90.855469 72.980469 94.246094 79.972656 96.855469 87.34375 C 91.738281 97.707031 85.085938 106.972656 76.902344 115.140625 Z M 97.984375 90.839844 C 99.777344 96.535156 101.082031 102.339844 101.894531 108.253906 C 100.730469 112.769531 99.265625 117.1875 97.511719 121.503906 C 95.753906 125.824219 93.714844 130.011719 91.402344 134.058594 C 89.085938 138.105469 86.507812 141.980469 83.675781 145.6875 C 80.839844 149.390625 77.773438 152.886719 74.472656 156.183594 C 33.386719 197.265625 -33.453125 197.265625 -74.539062 156.183594 C -78.574219 152.15625 -82.253906 147.828125 -85.582031 143.203125 C -88.910156 138.574219 -91.84375 133.707031 -94.378906 128.601562 C -96.910156 123.496094 -99.015625 118.21875 -100.691406 112.769531 C -102.363281 107.324219 -103.585938 101.773438 -104.351562 96.125 C -102.859375 90.363281 -100.890625 84.765625 -98.449219 79.335938 C -95.746094 86.40625 -92.335938 93.117188 -88.21875 99.464844 C -84.097656 105.8125 -79.359375 111.660156 -74.003906 117.007812 C -31.902344 159.113281 36.609375 159.113281 78.714844 117.007812 C 86.484375 109.261719 92.917969 100.53125 98.015625 90.820312 Z M 73.929688 46.335938 C 31.828125 4.234375 -36.683594 4.234375 -78.789062 46.335938 C -86.539062 54.078125 -92.960938 62.800781 -98.054688 72.5 C -99.847656 66.804688 -101.148438 61.003906 -101.964844 55.089844 C -100.796875 50.574219 -99.335938 46.15625 -97.578125 41.835938 C -95.820312 37.515625 -93.78125 33.332031 -91.464844 29.285156 C -89.148438 25.238281 -86.574219 21.363281 -83.742188 17.660156 C -80.90625 13.957031 -77.839844 10.457031 -74.539062 7.164062 C -33.457031 -33.914062 33.386719 -33.921875 74.46875 7.160156 C 78.503906 11.183594 82.183594 15.511719 85.511719 20.140625 C 88.84375 24.769531 91.773438 29.632812 94.308594 34.738281 C 96.84375 39.847656 98.949219 45.125 100.625 50.574219 C 102.296875 56.023438 103.519531 61.570312 104.285156 67.21875 C 102.792969 72.984375 100.824219 78.582031 98.382812 84.007812 C 95.6875 76.9375 92.28125 70.226562 88.167969 63.875 C 84.050781 57.519531 79.320312 51.667969 73.964844 46.320312 Z M 72.113281 197.183594 C 31.027344 238.265625 -35.816406 238.261719 -76.898438 197.183594 C -79.925781 194.152344 -82.757812 190.949219 -85.394531 187.574219 C -88.03125 184.199219 -90.453125 180.679688 -92.664062 177.007812 C -94.871094 173.335938 -96.847656 169.546875 -98.589844 165.632812 C -100.335938 161.722656 -101.835938 157.71875 -103.09375 153.625 C -104.351562 149.53125 -105.355469 145.375 -106.101562 141.15625 C -106.851562 136.941406 -107.34375 132.691406 -107.574219 128.414062 C -107.804688 124.140625 -107.777344 119.863281 -107.488281 115.589844 C -107.195312 111.316406 -106.648438 107.078125 -105.839844 102.871094 C -104.8125 108.066406 -103.40625 113.160156 -101.625 118.148438 C -99.84375 123.136719 -97.703125 127.964844 -95.207031 132.636719 C -92.707031 137.308594 -89.878906 141.769531 -86.722656 146.023438 C -83.5625 150.277344 -80.109375 154.273438 -76.359375 158.011719 C -34.257812 200.117188 34.253906 200.117188 76.359375 158.011719 C 82.375 152.007812 87.609375 145.382812 92.054688 138.132812 C 96.496094 130.886719 100.03125 123.21875 102.65625 115.132812 C 102.929688 118.886719 103.003906 122.648438 102.871094 126.410156 C 102.742188 130.175781 102.414062 133.921875 101.878906 137.648438 C 101.347656 141.378906 100.617188 145.066406 99.691406 148.71875 C 98.761719 152.367188 97.640625 155.957031 96.328125 159.484375 C 95.011719 163.015625 93.515625 166.464844 91.828125 169.832031 C 90.144531 173.203125 88.285156 176.46875 86.25 179.636719 C 84.214844 182.808594 82.015625 185.859375 79.652344 188.789062 C 77.289062 191.722656 74.777344 194.519531 72.113281 197.183594 Z M 103.425781 101.484375 C 102.480469 96.746094 101.226562 92.089844 99.65625 87.519531 C 101.753906 83.171875 103.546875 78.703125 105.042969 74.113281 C 105.695312 83.296875 105.164062 92.414062 103.449219 101.460938 Z M 105.820312 60.464844 C 104.792969 55.269531 103.386719 50.175781 101.601562 45.1875 C 99.820312 40.199219 97.679688 35.371094 95.179688 30.699219 C 92.683594 26.027344 89.855469 21.5625 86.699219 17.3125 C 83.539062 13.058594 80.085938 9.058594 76.335938 5.320312 C 34.230469 -36.785156 -34.273438 -36.78125 -76.378906 5.324219 C -82.398438 11.328125 -87.628906 17.953125 -92.074219 25.203125 C -96.519531 32.449219 -100.050781 40.117188 -102.675781 48.207031 C -102.949219 44.449219 -103.023438 40.6875 -102.890625 36.921875 C -102.761719 33.15625 -102.433594 29.410156 -101.898438 25.679688 C -101.367188 21.949219 -100.636719 18.257812 -99.707031 14.609375 C -98.777344 10.957031 -97.65625 7.367188 -96.34375 3.835938 C -95.027344 0.304688 -93.527344 -3.144531 -91.839844 -6.515625 C -90.15625 -9.882812 -88.292969 -13.152344 -86.257812 -16.324219 C -84.21875 -19.492188 -82.019531 -22.542969 -79.65625 -25.476562 C -77.289062 -28.410156 -74.773438 -31.207031 -72.109375 -33.871094 C -31.035156 -74.945312 35.816406 -74.953125 76.902344 -33.871094 C 79.929688 -30.839844 82.761719 -27.636719 85.398438 -24.261719 C 88.035156 -20.886719 90.457031 -17.363281 92.667969 -13.695312 C 94.875 -10.023438 96.851562 -6.234375 98.59375 -2.320312 C 100.339844 1.589844 101.839844 5.59375 103.097656 9.6875 C 104.355469 13.785156 105.355469 17.9375 106.105469 22.15625 C 106.855469 26.375 107.347656 30.621094 107.578125 34.898438 C 107.808594 39.175781 107.78125 43.449219 107.492188 47.722656 C 107.199219 51.996094 106.652344 56.234375 105.84375 60.441406 Z M 105.820312 60.464844 " fill-opacity="1" fill-rule="nonzero"/></g></g></g></svg>